# xmcd
#
# Track frame offsets: 
#        150
#        23106
#        46036
#        70481
#        73177
#        93071
#        119995
#        139455
#        153435
#        170066
#        173773
#        194084
#        211918
#        231092
#        256127
#        257266
#        283063
#        287479
#        307225
#
# Disc length: 4398 seconds
#
# Revision: 4
# Processed by: cddbd v1.5.2PL0 Copyright (c) Steve Scherf et al.
# Submitted via: ExactAudioCopy v0.99pb5
#
DISCID=23112c13
DTITLE=Ringsgwandl - Der Gaudibursch vom Hindukusch
DYEAR=1996
DGENRE=Country
TTITLE0=Der Gaudibursch vom Hindukusch
TTITLE1=Flash Master R.
TTITLE2=Sinkertime am Walchensee
TTITLE3=Blumenrabattenkontrolleur
TTITLE4=Da grillt wer
TTITLE5=Das Müllstrafenregister
TTITLE6=Geißmaß und Hühnerhirn
TTITLE7=Fernsehsprecherin
TTITLE8=Die Alte
TTITLE9=Die Skorpionratte
TTITLE10=Sepp
TTITLE11=Laufen, laufen
TTITLE12=Armes, kleines Unterhoserl
TTITLE13=Anders
TTITLE14=Schlag obers fertigkeit
TTITLE15=Welt vernetzt
TTITLE16=Prall in Kiel
TTITLE17=Wo dahoam
TTITLE18=Der Russ
EXTD=
EXTT0=
EXTT1=
EXTT2=
EXTT3=
EXTT4=
EXTT5=
EXTT6=
EXTT7=
EXTT8=
EXTT9=
EXTT10=
EXTT11=
EXTT12=
EXTT13=
EXTT14=
EXTT15=
EXTT16=
EXTT17=
EXTT18=
PLAYORDER=
